<svg width="16" height="17" viewBox="0 0 16 17" fill="none" xmlns="http://www.w3.org/2000/svg">
<path d="M14.5304 5.53057L6.53035 13.5306C6.46068 13.6005 6.37788 13.656 6.28672 13.6938C6.19555 13.7317 6.09781 13.7512 5.9991 13.7512C5.90039 13.7512 5.80265 13.7317 5.71149 13.6938C5.62033 13.656 5.53753 13.6005 5.46785 13.5306L1.96785 10.0306C1.89809 9.9608 1.84275 9.87798 1.80499 9.78683C1.76724 9.69568 1.7478 9.59798 1.7478 9.49932C1.7478 9.40066 1.76724 9.30296 1.80499 9.21181C1.84275 9.12066 1.89809 9.03783 1.96785 8.96807C2.03762 8.8983 2.12044 8.84296 2.21159 8.80521C2.30275 8.76745 2.40044 8.74802 2.4991 8.74802C2.59777 8.74802 2.69546 8.76745 2.78661 8.80521C2.87777 8.84296 2.96059 8.8983 3.03035 8.96807L5.99973 11.9374L13.4691 4.46932C13.61 4.32842 13.8011 4.24927 14.0004 4.24927C14.1996 4.24927 14.3907 4.32842 14.5316 4.46932C14.6725 4.61021 14.7517 4.80131 14.7517 5.00057C14.7517 5.19983 14.6725 5.39092 14.5316 5.53182L14.5304 5.53057Z" fill="white"/>
</svg>
