<svg width="16" height="17" viewBox="0 0 16 17" fill="none" xmlns="http://www.w3.org/2000/svg">
<path d="M14.5306 5.53057L6.5306 13.5306C6.46092 13.6005 6.37813 13.656 6.28696 13.6938C6.1958 13.7317 6.09806 13.7512 5.99935 13.7512C5.90064 13.7512 5.8029 13.7317 5.71173 13.6938C5.62057 13.656 5.53778 13.6005 5.4681 13.5306L1.9681 10.0306C1.89833 9.9608 1.84299 9.87798 1.80524 9.78683C1.76748 9.69568 1.74805 9.59798 1.74805 9.49932C1.74805 9.40066 1.76748 9.30296 1.80524 9.21181C1.84299 9.12066 1.89833 9.03783 1.9681 8.96807C2.03786 8.8983 2.12069 8.84296 2.21184 8.80521C2.30299 8.76745 2.40069 8.74802 2.49935 8.74802C2.59801 8.74802 2.69571 8.76745 2.78686 8.80521C2.87801 8.84296 2.96083 8.8983 3.0306 8.96807L5.99997 11.9374L13.4693 4.46932C13.6102 4.32842 13.8013 4.24927 14.0006 4.24927C14.1999 4.24927 14.391 4.32842 14.5318 4.46932C14.6727 4.61021 14.7519 4.80131 14.7519 5.00057C14.7519 5.19983 14.6727 5.39092 14.5318 5.53182L14.5306 5.53057Z" fill="#0D0D12"/>
</svg>
