<svg width="48" height="48" viewBox="0 0 48 48" fill="none" xmlns="http://www.w3.org/2000/svg">
<path d="M33.4387 31.0613L30 27.6206V39C30 39.3978 29.8419 39.7794 29.5606 40.0607C29.2793 40.342 28.8978 40.5 28.5 40.5C28.1021 40.5 27.7206 40.342 27.4393 40.0607C27.158 39.7794 27 39.3978 27 39V27.6206L23.5612 31.0613C23.4218 31.2006 23.2564 31.3112 23.0743 31.3866C22.8922 31.462 22.697 31.5008 22.4999 31.5008C22.3029 31.5008 22.1077 31.462 21.9256 31.3866C21.7435 31.3112 21.5781 31.2006 21.4387 31.0613C21.2993 30.9219 21.1888 30.7564 21.1134 30.5743C21.0379 30.3923 20.9991 30.1971 20.9991 30C20.9991 29.8029 21.0379 29.6077 21.1134 29.4257C21.1888 29.2436 21.2993 29.0781 21.4387 28.9387L27.4387 22.9387C27.578 22.7993 27.7434 22.6886 27.9255 22.6132C28.1076 22.5377 28.3028 22.4988 28.5 22.4988C28.6971 22.4988 28.8923 22.5377 29.0744 22.6132C29.2565 22.6886 29.4219 22.7993 29.5612 22.9387L35.5612 28.9387C35.7006 29.0781 35.8111 29.2436 35.8865 29.4257C35.962 29.6077 36.0008 29.8029 36.0008 30C36.0008 30.1971 35.962 30.3923 35.8865 30.5743C35.8111 30.7564 35.7006 30.9219 35.5612 31.0613C35.4218 31.2006 35.2564 31.3112 35.0743 31.3866C34.8922 31.462 34.697 31.5008 34.5 31.5008C34.3029 31.5008 34.1077 31.462 33.9256 31.3866C33.7435 31.3112 33.5781 31.2006 33.4387 31.0613ZM30 7.5C26.9354 7.50231 23.9319 8.35728 21.3255 9.96925C18.7191 11.5812 16.6127 13.8866 15.2418 16.6275C13.6097 16.3877 11.9456 16.4869 10.3536 16.9191C8.7615 17.3513 7.27564 18.107 5.9888 19.1392C4.70195 20.1714 3.64174 21.4579 2.8744 22.9182C2.10706 24.3786 1.64906 25.9814 1.52901 27.6267C1.40896 29.272 1.62944 30.9244 2.17667 32.4807C2.7239 34.0369 3.58614 35.4636 4.70953 36.6717C5.83291 37.8798 7.19332 38.8432 8.70578 39.5019C10.2182 40.1606 11.8503 40.5004 13.4999 40.5H20.9999C21.3978 40.5 21.7793 40.342 22.0606 40.0607C22.3419 39.7794 22.4999 39.3978 22.4999 39C22.4999 38.6022 22.3419 38.2206 22.0606 37.9393C21.7793 37.658 21.3978 37.5 20.9999 37.5H13.4999C11.113 37.5 8.82382 36.5518 7.13599 34.864C5.44816 33.1761 4.49995 30.8869 4.49995 28.5C4.49995 26.1131 5.44816 23.8239 7.13599 22.136C8.82382 20.4482 11.113 19.5 13.4999 19.5C13.7062 19.5 13.9124 19.5 14.1168 19.5225C13.7068 20.9796 13.4992 22.4863 13.4999 24C13.4999 24.3978 13.658 24.7794 13.9393 25.0607C14.2206 25.342 14.6021 25.5 14.9999 25.5C15.3978 25.5 15.7793 25.342 16.0606 25.0607C16.3419 24.7794 16.4999 24.3978 16.4999 24C16.5003 21.5662 17.1586 19.1777 18.4052 17.0874C19.6518 14.997 21.4403 13.2826 23.5815 12.1254C25.7227 10.9683 28.1368 10.4115 30.5685 10.514C33.0001 10.6165 35.3589 11.3745 37.3951 12.7077C39.4312 14.0409 41.0691 15.8998 42.1354 18.0876C43.2017 20.2754 43.6567 22.7108 43.4522 25.136C43.2478 27.5613 42.3915 29.8861 40.974 31.8646C39.5566 33.843 37.6306 35.4015 35.4 36.375C35.0832 36.5123 34.8235 36.7547 34.6647 37.0612C34.5059 37.3677 34.4577 37.7196 34.5282 38.0576C34.5987 38.3955 34.7836 38.6988 35.0517 38.9163C35.3198 39.1337 35.6547 39.252 36 39.2512C36.2067 39.2511 36.411 39.2076 36.5999 39.1238C40.075 37.6079 42.922 34.9416 44.6621 31.5734C46.4022 28.2051 46.9294 24.3403 46.1548 20.629C45.3802 16.9178 43.3513 13.5864 40.4091 11.1954C37.467 8.80429 33.7912 7.49934 30 7.5Z" fill="#818898"/>
</svg>
