<svg width="85" height="77" viewBox="0 0 85 77" fill="none" xmlns="http://www.w3.org/2000/svg">
<g filter="url(#filter0_d_1_2557)">
<path fill-rule="evenodd" clip-rule="evenodd" d="M32.5662 12.395C23.1537 18.44 17.9246 25.4763 16.8787 33.5038C15.25 46 26.425 52.1163 32.0875 46.6213C37.75 41.1263 34.3562 34.15 30.2562 32.2425C26.1562 30.335 23.6487 31 24.0862 28.4513C24.5237 25.9025 30.3562 18.8388 35.4812 15.5488C35.6626 15.3941 35.7782 15.1763 35.8047 14.9394C35.8312 14.7026 35.7665 14.4646 35.6237 14.2738L34.3562 12.625C33.8062 11.91 33.2787 11.9375 32.5662 12.3938M57.3487 12.395C47.9362 18.44 42.7071 25.4763 41.6612 33.5038C40.0312 46 51.2062 52.1163 56.8687 46.6213C62.5312 41.1263 59.1375 34.15 55.0362 32.2425C50.935 30.335 48.4287 31 48.8662 28.4513C49.3037 25.9025 55.1375 18.8388 60.2625 15.5488C60.4436 15.394 60.5591 15.176 60.5853 14.9392C60.6115 14.7024 60.5466 14.4644 60.4037 14.2738L59.1375 12.625C58.5875 11.91 58.06 11.9375 57.3487 12.3938" fill="white"/>
</g>
<defs>
<filter id="filter0_d_1_2557" x="0.718262" y="0.0668106" width="83.8728" height="76.5803" filterUnits="userSpaceOnUse" color-interpolation-filters="sRGB">
<feFlood flood-opacity="0" result="BackgroundImageFix"/>
<feColorMatrix in="SourceAlpha" type="matrix" values="0 0 0 0 0 0 0 0 0 0 0 0 0 0 0 0 0 0 127 0" result="hardAlpha"/>
<feOffset dx="4" dy="8"/>
<feGaussianBlur stdDeviation="10"/>
<feComposite in2="hardAlpha" operator="out"/>
<feColorMatrix type="matrix" values="0 0 0 0 0 0 0 0 0 0 0 0 0 0 0 0 0 0 0.2 0"/>
<feBlend mode="normal" in2="BackgroundImageFix" result="effect1_dropShadow_1_2557"/>
<feBlend mode="normal" in="SourceGraphic" in2="effect1_dropShadow_1_2557" result="shape"/>
</filter>
</defs>
</svg>
