<svg width="14" height="14" viewBox="0 0 14 14" fill="none" xmlns="http://www.w3.org/2000/svg">
<path d="M3.9107 6.5357L8.2857 2.1607C8.40898 2.03741 8.57619 1.96815 8.75054 1.96815C8.92489 1.96815 9.0921 2.03741 9.21538 2.1607C9.33867 2.28398 9.40793 2.45119 9.40793 2.62554C9.40793 2.79989 9.33867 2.9671 9.21538 3.09038L5.30468 6.99999L9.21429 10.9107C9.27533 10.9717 9.32376 11.0442 9.35679 11.124C9.38983 11.2037 9.40683 11.2892 9.40683 11.3755C9.40683 11.4619 9.38983 11.5474 9.35679 11.6271C9.32376 11.7069 9.27533 11.7793 9.21429 11.8404C9.15325 11.9014 9.08078 11.9499 9.00102 11.9829C8.92126 12.0159 8.83578 12.0329 8.74945 12.0329C8.66312 12.0329 8.57763 12.0159 8.49787 11.9829C8.41812 11.9499 8.34565 11.9014 8.2846 11.8404L3.9096 7.46538C3.84849 7.40434 3.80004 7.33184 3.76701 7.25203C3.73398 7.17223 3.71703 7.08668 3.71713 7.00031C3.71723 6.91394 3.73438 6.82844 3.7676 6.74871C3.80082 6.66898 3.84944 6.59659 3.9107 6.5357Z" fill="#818898"/>
</svg>
