<svg width="14" height="14" viewBox="0 0 14 14" fill="none" xmlns="http://www.w3.org/2000/svg">
<path d="M10.0893 7.4643L5.7143 11.8393C5.59102 11.9626 5.42381 12.0318 5.24946 12.0318C5.07511 12.0318 4.9079 11.9626 4.78462 11.8393C4.66133 11.716 4.59207 11.5488 4.59207 11.3745C4.59207 11.2001 4.66133 11.0329 4.78462 10.9096L8.69532 7.00001L4.78571 3.0893C4.72467 3.02826 4.67624 2.95579 4.64321 2.87603C4.61017 2.79627 4.59317 2.71079 4.59317 2.62446C4.59317 2.53813 4.61017 2.45265 4.64321 2.37289C4.67624 2.29313 4.72467 2.22066 4.78571 2.15962C4.84675 2.09857 4.91922 2.05015 4.99898 2.01711C5.07874 1.98408 5.16422 1.96707 5.25055 1.96707C5.33688 1.96707 5.42237 1.98408 5.50213 2.01711C5.58188 2.05015 5.65435 2.09857 5.7154 2.15962L10.0904 6.53462C10.1515 6.59566 10.2 6.66816 10.233 6.74797C10.266 6.82777 10.283 6.91332 10.2829 6.99969C10.2828 7.08606 10.2656 7.17156 10.2324 7.25129C10.1992 7.33102 10.1506 7.40341 10.0893 7.4643Z" fill="#818898"/>
</svg>
